HIERARCHY
ROOT hip
{
  OFFSET 0 0 0
  CHANNELS 6 Xposition Yposition Zposition Zrotation Yrotation Xrotation
  JOINT abdomen
  {
    OFFSET 0 20.6881 -0.73152
    CHANNELS 3 Zrotation Xrotation Yrotation
    JOINT chest
    {
      OFFSET 0 11.7043 -0.48768
      CHANNELS 3 Zrotation Xrotation Yrotation
      JOINT neck
      {
        OFFSET 0 22.1894 -2.19456
        CHANNELS 3 Zrotation Xrotation Yrotation
        JOINT head
        {
          OFFSET -0.24384 7.07133 1.2192
          CHANNELS 3 Zrotation Xrotation Yrotation
          JOINT leftEye
          {
            OFFSET 4.14528 8.04674 8.04672
            CHANNELS 3 Zrotation Xrotation Yrotation
            End Site
            {
              OFFSET 1 0 0
            }
          }
          JOINT rightEye
          {
            OFFSET -3.6576 8.04674 8.04672
            CHANNELS 3 Zrotation Xrotation Yrotation
            End Site
            {
              OFFSET 1 0 0
            }
          }
        }
      }
      JOINT rCollar
      {
        OFFSET -2.68224 19.2634 -4.8768
        CHANNELS 3 Zrotation Xrotation Yrotation
        JOINT rShldr
        {
          OFFSET -8.77824 -1.95073 1.46304
          CHANNELS 3 Zrotation Xrotation Yrotation
          JOINT rForeArm
          {
            OFFSET -28.1742 -1.7115 0.48768
            CHANNELS 3 Zrotation Xrotation Yrotation
            JOINT rHand
            {
              OFFSET -22.5879 0.773209 7.07136
              CHANNELS 3 Zrotation Xrotation Yrotation
              JOINT rThumb1
              {
                OFFSET -1.2192 -0.487915 3.41376
                CHANNELS 3 Zrotation Xrotation Yrotation
                JOINT rThumb2
                {
                  OFFSET -3.37035 -0.52449 3.41376
                  CHANNELS 3 Zrotation Xrotation Yrotation
                  End Site
                  {
                    OFFSET -1.78271 -1.18214 1.43049
                  }
                }
              }
              JOINT rIndex1
              {
                OFFSET -7.75947 0.938293 5.60832
                CHANNELS 3 Zrotation Xrotation Yrotation
                JOINT rIndex2
                {
                  OFFSET -2.54057 -0.884171 1.56538
                  CHANNELS 3 Zrotation Xrotation Yrotation
                  End Site
                  {
                    OFFSET -1.62519 -0.234802 1.16502
                  }
                }
              }
              JOINT rMid1
              {
                OFFSET -8.24714 1.18213 3.41376
                CHANNELS 3 Zrotation Xrotation Yrotation
                JOINT rMid2
                {
                  OFFSET -3.10165 -0.590103 1.0647
                  CHANNELS 3 Zrotation Xrotation Yrotation
                  End Site
                  {
                    OFFSET -2.48547 -0.328903 0.83742
                  }
                }
              }
              JOINT rRing1
              {
                OFFSET -8.82822 0.546677 1.51678
                CHANNELS 3 Zrotation Xrotation Yrotation
                JOINT rRing2
                {
                  OFFSET -2.60934 -0.819778 -0.0198488
                  CHANNELS 3 Zrotation Xrotation Yrotation
                  End Site
                  {
                    OFFSET -2.33842 -0.294052 0.168128
                  }
                }
              }
              JOINT rPinky1
              {
                OFFSET -8.27202 -0.0477905 -0.4584
                CHANNELS 3 Zrotation Xrotation Yrotation
                JOINT rPinky2
                {
                  OFFSET -1.82734 -0.647385 -0.700984
                  CHANNELS 3 Zrotation Xrotation Yrotation
                  End Site
                  {
                    OFFSET -1.69225 -0.51767 -0.607171
                  }
                }
              }
            }
          }
        }
      }
      JOINT lCollar
      {
        OFFSET 2.68224 19.2634 -4.8768
        CHANNELS 3 Zrotation Xrotation Yrotation
        JOINT lShldr
        {
          OFFSET 8.77824 -1.95073 1.46304
          CHANNELS 3 Zrotation Xrotation Yrotation
          JOINT lForeArm
          {
            OFFSET 28.1742 -1.7115 0.48768
            CHANNELS 3 Zrotation Xrotation Yrotation
            JOINT lHand
            {
              OFFSET 22.5879 0.773209 7.07136
              CHANNELS 3 Zrotation Xrotation Yrotation
              JOINT lThumb1
              {
                OFFSET 1.2192 -0.487915 3.41376
                CHANNELS 3 Zrotation Xrotation Yrotation
                JOINT lThumb2
                {
                  OFFSET 3.37035 -0.52449 3.41376
                  CHANNELS 3 Zrotation Xrotation Yrotation
                  End Site
                  {
                    OFFSET 1.78271 -1.18214 1.43049
                  }
                }
              }
              JOINT lIndex1
              {
                OFFSET 7.75947 0.938293 5.60832
                CHANNELS 3 Zrotation Xrotation Yrotation
                JOINT lIndex2
                {
                  OFFSET 2.54057 -0.884171 1.56538
                  CHANNELS 3 Zrotation Xrotation Yrotation
                  End Site
                  {
                    OFFSET 1.62519 -0.234802 1.16502
                  }
                }
              }
              JOINT lMid1
              {
                OFFSET 8.24714 1.18213 3.41376
                CHANNELS 3 Zrotation Xrotation Yrotation
                JOINT lMid2
                {
                  OFFSET 3.10165 -0.590103 1.0647
                  CHANNELS 3 Zrotation Xrotation Yrotation
                  End Site
                  {
                    OFFSET 2.48547 -0.328903 0.83742
                  }
                }
              }
              JOINT lRing1
              {
                OFFSET 8.82822 0.546677 1.51678
                CHANNELS 3 Zrotation Xrotation Yrotation
                JOINT lRing2
                {
                  OFFSET 2.60934 -0.819778 -0.0198488
                  CHANNELS 3 Zrotation Xrotation Yrotation
                  End Site
                  {
                    OFFSET 2.33842 -0.294052 0.168128
                  }
                }
              }
              JOINT lPinky1
              {
                OFFSET 8.27202 -0.0477905 -0.4584
                CHANNELS 3 Zrotation Xrotation Yrotation
                JOINT lPinky2
                {
                  OFFSET 1.82734 -0.647385 -0.700984
                  CHANNELS 3 Zrotation Xrotation Yrotation
                  End Site
                  {
                    OFFSET 1.69225 -0.51767 -0.607171
                  }
                }
              }
            }
          }
        }
      }
    }
  }
  JOINT rButtock
  {
    OFFSET -8.77824 4.35084 1.2192
    CHANNELS 3 Zrotation Xrotation Yrotation
    JOINT rThigh
    {
      OFFSET 0 -1.70687 -2.19456
      CHANNELS 3 Zrotation Xrotation Yrotation
      JOINT rShin
      {
        OFFSET 0 -36.8199 0.73152
        CHANNELS 3 Zrotation Xrotation Yrotation
        JOINT rFoot
        {
          OFFSET 0.73152 -45.1104 -5.12064
          CHANNELS 3 Zrotation Xrotation Yrotation
          End Site
          {
            OFFSET -1.1221 -3.69964 12.103
          }
        }
      }
    }
  }
  JOINT lButtock
  {
    OFFSET 8.77824 4.35084 1.2192
    CHANNELS 3 Zrotation Xrotation Yrotation
    JOINT lThigh
    {
      OFFSET 0 -1.70687 -2.19456
      CHANNELS 3 Zrotation Xrotation Yrotation
      JOINT lShin
      {
        OFFSET 0 -36.8199 0.73152
        CHANNELS 3 Zrotation Xrotation Yrotation
        JOINT lFoot
        {
          OFFSET -0.73152 -45.1104 -5.12064
          CHANNELS 3 Zrotation Xrotation Yrotation
          End Site
          {
            OFFSET 1.1221 -3.69964 12.103
          }
        }
      }
    }
  }
}
MOTION
Frames:	5
Frame Time:	0.03333
-9.35279997370344 42.673999071121216 13.985999960277695 176.82395935058594 -70.62828063964844 -170.46102905273438 -10.046018600463867 18.045392990112305 14.950007438659668 -5.549582481384277 -12.949104309082031 3.072582960128784 0.3373660445213318 14.79979133605957 15.837090492248535 -2.41821026802063 -17.475894927978516 30.10429573059082 -0.0 0.0 -0.0 -0.0 0.0 -0.0 -0.0 0.0 -0.0 72.55260467529297 51.45209503173828 -17.671302795410156 -27.631208419799805 -42.03509521484375 87.65269470214844 -0.029803115874528885 4.921780586242676 0.6934570074081421 -0.0 0.0 -0.0 -0.0 0.0 -0.0 -0.0 0.0 -0.0 7.730876445770264 5.474894046783447 0.41732466220855713 -0.0 0.0 -0.0 2.9054994583129883 0.9650753736495972 0.10300876200199127 -0.0 0.0 -0.0 10.278595924377441 0.7317469120025635 0.026285571977496147 -0.0 0.0 -0.0 2.221662998199463 -0.7335850596427917 -0.20831838250160217 -0.0 0.0 -0.0 -41.90369415283203 45.968997955322266 -27.568500518798828 25.910003662109375 -46.44479751586914 -96.4988021850586 1.0566037893295288 -27.853696823120117 4.259132385253906 -0.0 0.0 -0.0 -0.0 0.0 -0.0 -0.0 0.0 -0.0 -7.730876445770264 5.474894046783447 -0.41732466220855713 -0.0 0.0 -0.0 -2.9054994583129883 0.9650753736495972 -0.10300876200199127 -0.0 0.0 -0.0 -10.278595924377441 0.7317469120025635 -0.026285571977496147 -0.0 0.0 -0.0 -2.221662998199463 -0.7335850596427917 0.20831838250160217 -0.0 0.0 -0.0 -74.8551254272461 -50.01520538330078 -61.08061599731445 -168.57510375976562 84.81321716308594 170.19309997558594 4.279153347015381 -24.20000457763672 4.2832159996032715 -0.0 0.0 -0.0 58.14479064941406 -53.538082122802734 43.163299560546875 156.1337890625 88.02235412597656 -159.18771362304688 1.439135193824768 -27.115001678466797 7.917928695678711
-9.303899973883745 42.544299364089966 14.031999961298425 176.4059600830078 -70.72129821777344 -170.1800079345703 -10.214309692382812 18.206695556640625 14.884690284729004 -5.550937652587891 -13.048412322998047 3.0335590839385986 0.42086151242256165 14.764596939086914 15.821396827697754 -2.524350166320801 -17.392108917236328 30.053598403930664 -0.0 0.0 -0.0 -0.0 0.0 -0.0 -0.0 0.0 -0.0 72.36209106445312 51.43999481201172 -17.59060287475586 -27.648900985717773 -41.96860122680664 87.52800750732422 -0.013560178689658642 4.736318111419678 0.6664201021194458 -0.0 0.0 -0.0 -0.0 0.0 -0.0 -0.0 0.0 -0.0 7.730876445770264 5.474894046783447 0.41732466220855713 -0.0 0.0 -0.0 2.9054994583129883 0.9650753736495972 0.10300876200199127 -0.0 0.0 -0.0 10.278595924377441 0.7317469120025635 0.026285571977496147 -0.0 0.0 -0.0 2.221662998199463 -0.7335850596427917 -0.20831838250160217 -0.0 0.0 -0.0 -41.98099899291992 45.9429931640625 -27.474088668823242 25.920896530151367 -46.42390060424805 -96.45368957519531 1.0574241876602173 -27.863401412963867 4.260894298553467 -0.0 0.0 -0.0 -0.0 0.0 -0.0 -0.0 0.0 -0.0 -7.730876445770264 5.474894046783447 -0.41732466220855713 -0.0 0.0 -0.0 -2.9054994583129883 0.9650753736495972 -0.10300876200199127 -0.0 0.0 -0.0 -10.278595924377441 0.7317469120025635 -0.026285571977496147 -0.0 0.0 -0.0 -2.221662998199463 -0.7335850596427917 0.20831838250160217 -0.0 0.0 -0.0 -75.41740417480469 -49.90620803833008 -61.48929977416992 -169.09803771972656 84.5512924194336 170.73208618164062 4.215875148773193 -24.07979393005371 4.172040939331055 -0.0 0.0 -0.0 58.01980209350586 -53.79990005493164 43.04681396484375 158.4970703125 87.81725311279297 -161.57901000976562 1.512404441833496 -27.016918182373047 8.098496437072754
-9.238599971422445 42.44599938392639 14.111999959277455 175.8879852294922 -70.80200958251953 -169.82699584960938 -10.365182876586914 18.4486026763916 14.817302703857422 -5.535635948181152 -13.161102294921875 2.993360996246338 0.3323518931865692 14.718300819396973 15.840088844299316 -2.451005458831787 -17.372699737548828 30.106502532958984 -0.0 0.0 -0.0 -0.0 0.0 -0.0 -0.0 0.0 -0.0 72.02920532226562 51.50669860839844 -17.367691040039062 -27.669403076171875 -41.890594482421875 87.3816909790039 -0.04046228900551796 4.636598587036133 0.6536423563957214 -0.0 0.0 -0.0 -0.0 0.0 -0.0 -0.0 0.0 -0.0 7.730876445770264 5.474894046783447 0.41732466220855713 -0.0 0.0 -0.0 2.9054994583129883 0.9650753736495972 0.10300876200199127 -0.0 0.0 -0.0 10.278595924377441 0.7317469120025635 0.026285571977496147 -0.0 0.0 -0.0 2.221662998199463 -0.7335850596427917 -0.20831838250160217 -0.0 0.0 -0.0 -42.26679992675781 45.82119369506836 -27.193599700927734 25.938785552978516 -46.390098571777344 -96.38070678710938 1.0340147018432617 -27.768037796020508 4.239777565002441 -0.0 0.0 -0.0 -0.0 0.0 -0.0 -0.0 0.0 -0.0 -7.730876445770264 5.474894046783447 -0.41732466220855713 -0.0 0.0 -0.0 -2.9054994583129883 0.9650753736495972 -0.10300876200199127 -0.0 0.0 -0.0 -10.278595924377441 0.7317469120025635 -0.026285571977496147 -0.0 0.0 -0.0 -2.221662998199463 -0.7335850596427917 0.20831838250160217 -0.0 0.0 -0.0 -75.93800354003906 -49.805198669433594 -61.842002868652344 -169.54656982421875 84.30907440185547 171.2043914794922 4.10122013092041 -23.947996139526367 3.963129997253418 -0.0 0.0 -0.0 57.73340606689453 -54.076290130615234 42.716609954833984 160.06175231933594 87.65756225585938 -163.17770385742188 1.6142537593841553 -26.918006896972656 8.338883399963379
-9.12899997506429 42.34350025653839 14.154999957827386 175.25393676757812 -70.83379364013672 -169.38401794433594 -10.498201370239258 18.771394729614258 14.747907638549805 -5.503718852996826 -13.286998748779297 2.9518325328826904 0.07180056720972061 14.66079330444336 15.893004417419434 -2.198188304901123 -17.417699813842773 30.26289939880371 -0.0 0.0 -0.0 -0.0 0.0 -0.0 -0.0 0.0 -0.0 71.55168914794922 51.65150451660156 -17.000890731811523 -27.692296981811523 -41.8009033203125 87.21400451660156 -0.04029835760593414 4.6229119300842285 0.6515200734138489 -0.0 0.0 -0.0 -0.0 0.0 -0.0 -0.0 0.0 -0.0 7.730876445770264 5.474894046783447 0.41732466220855713 -0.0 0.0 -0.0 2.9054994583129883 0.9650753736495972 0.10300876200199127 -0.0 0.0 -0.0 10.278595924377441 0.7317469120025635 0.026285571977496147 -0.0 0.0 -0.0 2.221662998199463 -0.7335850596427917 -0.20831838250160217 -0.0 0.0 -0.0 -42.75709915161133 45.60159683227539 -26.729799270629883 25.963300704956055 -46.34319305419922 -96.27987670898438 1.0172237157821655 -27.566431045532227 4.203612804412842 -0.0 0.0 -0.0 -0.0 0.0 -0.0 -0.0 0.0 -0.0 -7.730876445770264 5.474894046783447 -0.41732466220855713 -0.0 0.0 -0.0 -2.9054994583129883 0.9650753736495972 -0.10300876200199127 -0.0 0.0 -0.0 -10.278595924377441 0.7317469120025635 -0.026285571977496147 -0.0 0.0 -0.0 -2.221662998199463 -0.7335850596427917 0.20831838250160217 -0.0 0.0 -0.0 -76.41749572753906 -49.71289825439453 -62.1393928527832 -169.93614196777344 84.0865249633789 171.62420654296875 3.9358959197998047 -23.804201126098633 3.656722068786621 -0.0 0.0 -0.0 57.28081512451172 -54.36528778076172 42.167625427246094 161.07330322265625 87.54496002197266 -164.22718811035156 1.7433134317398071 -26.817893981933594 8.638691902160645
-8.975399969631326 42.293500900268555 14.19099995837314 174.97694396972656 -70.89808654785156 -169.21803283691406 -10.586929321289062 19.01479148864746 14.771297454833984 -5.493404388427734 -13.380003929138184 2.942023277282715 -0.03292300924658775 14.618016242980957 15.898290634155273 -2.1413018703460693 -17.48359489440918 30.293701171875 -0.0 0.0 -0.0 -0.0 0.0 -0.0 -0.0 0.0 -0.0 70.89430236816406 51.766693115234375 -16.482900619506836 -27.709184646606445 -41.73339080810547 87.08879089355469 -0.013363986276090145 4.719413757324219 0.6640468835830688 -0.0 0.0 -0.0 -0.0 0.0 -0.0 -0.0 0.0 -0.0 7.730876445770264 5.474894046783447 0.41732466220855713 -0.0 0.0 -0.0 2.9054994583129883 0.9650753736495972 0.10300876200199127 -0.0 0.0 -0.0 10.278595924377441 0.7317469120025635 0.026285571977496147 -0.0 0.0 -0.0 2.221662998199463 -0.7335850596427917 -0.20831838250160217 -0.0 0.0 -0.0 -43.248600006103516 45.43149948120117 -26.29669952392578 25.998096466064453 -46.27648162841797 -96.13639831542969 1.0167204141616821 -27.374399185180664 4.173071384429932 -0.0 0.0 -0.0 -0.0 0.0 -0.0 -0.0 0.0 -0.0 -7.730876445770264 5.474894046783447 -0.41732466220855713 -0.0 0.0 -0.0 -2.9054994583129883 0.9650753736495972 -0.10300876200199127 -0.0 0.0 -0.0 -10.278595924377441 0.7317469120025635 -0.026285571977496147 -0.0 0.0 -0.0 -2.221662998199463 -0.7335850596427917 0.20831838250160217 -0.0 0.0 -0.0 -76.78789520263672 -49.73109436035156 -62.55329513549805 -170.29750061035156 83.87541198730469 172.03057861328125 3.6381149291992188 -23.50788688659668 3.1222586631774902 -0.0 0.0 -0.0 56.90659713745117 -54.67799758911133 41.67520523071289 161.3369140625 87.51721954345703 -164.51492309570312 1.8419138193130493 -26.688343048095703 8.869067192077637
